<?xml version="1.0" standalone="no"?><!DOCTYPE svg PUBLIC "-//W3C//DTD SVG 1.1//EN" "http://www.w3.org/Graphics/SVG/1.1/DTD/svg11.dtd"><svg t="1634650792690" class="icon" viewBox="0 0 1107 1024" version="1.1" xmlns="http://www.w3.org/2000/svg" p-id="4607" xmlns:xlink="http://www.w3.org/1999/xlink" width="216.2109375" height="200"><defs><style type="text/css"></style></defs><path d="M553.246655 937.184243c238.524101 0 431.949107-141.811598 431.949107-405.014926 0-26.808906-2.004404-53.868363-5.887938-80.92782H552.870829" fill="#E2E2E2" p-id="4608"></path><path d="M557.506014 591.675067h426.436995c0.626376-10.272572 2.254955-33.072669 2.254955-43.721067 0-26.808906-2.004404-53.868363-5.887937-80.927819H557.506014" fill="#AD8482" p-id="4609"></path><path d="M553.747756 1006.461463c198.811842 0 383.342305-22.800098 536.178126-80.92782H557.506014" fill="#D8D8D8" p-id="4610"></path><path d="M976.551769 769.06484h-46.101297c-9.646195 0-17.538537-7.892342-17.538537-17.538537s7.892342-17.538537 17.538537-17.538537h46.101297c52.490335 0 95.2092-42.718865 95.2092-95.2092 0-49.98483-33.448495-87.692684-77.670664-87.692684-9.646195 0-17.538537-7.892342-17.538536-17.538537s7.892342-17.538537 17.538536-17.538537c30.567164 0 58.879374 12.402251 79.925618 34.951799 21.171519 22.674823 32.822119 53.868363 32.822119 87.817959 0 71.782726-58.378273 130.286274-130.286273 130.286274z" fill="" p-id="4611"></path><path d="M219.88918 476.29655c-3.006606 24.178126-4.635185 48.481527-4.635185 72.534377 0 236.018596 151.332518 363.298263 337.99266 363.298263s337.99266-127.279667 337.99266-363.298263c0-24.052851-1.628578-48.356252-4.635185-72.534377H219.88918z" fill="#FFFFFF" p-id="4612"></path><path d="M896.626151 591.675067c3.632983-9.771471 7.14069-33.197945 8.142892-43.721067 2.505505-26.558356 4.635185-53.868363 1.378028-80.927819H189.823117c0.501101 26.43308-0.751652 54.244189 2.63078 80.927819 3.382432 25.806704 5.261561 33.57377 5.762662 43.721067h698.409592z" fill="#D3B1AB" p-id="4613"></path><path d="M553.246655 954.72278c-61.760705 0-120.138977-9.145094-173.75679-27.184733-54.74529-18.415464-102.850991-45.725471-143.189626-80.927819-86.690482-75.791534-132.541228-184.530462-132.541228-314.440911 0-27.310007 2.004404-55.371666 6.013213-83.433325 1.252753-8.643993 8.643993-15.033032 17.413261-15.033031h852.122339c8.769268 0 16.160509 6.389038 17.413262 15.033031 4.008808 28.061659 6.013213 56.123318 6.013213 83.433325 0 129.910448-45.850746 238.649376-132.541229 314.440911-40.338635 35.327624-88.569611 62.512356-143.189625 80.927819-53.617813 18.039638-112.12136 27.184732-173.75679 27.184733zM142.594343 468.780034c-2.505505 21.296795-3.758258 42.593589-3.758258 63.389283 0 235.392219 162.607291 387.476389 414.41057 387.476389 251.678003 0 414.41057-152.084169 414.41057-387.476389 0-20.795694-1.252753-41.967213-3.758258-63.389283H142.594343z" fill="" p-id="4614"></path><path d="M551.743352 927.913873c131.288476 0 248.796672-42.969415 328.095914-125.525813h-326.968437" fill="#AD8482" p-id="4615"></path><path d="M283.904839 788.607781c64.642036 82.431123 160.728162 139.306092 267.963788 139.306092s203.196477-56.749694 267.963788-139.306092H283.904839z" fill="#D3B1AB" p-id="4616"></path><path d="M553.747756 945.45241c-138.679716 0-259.69562-46.477123-340.748716-130.91265-4.259359-4.384634-5.887937-10.773673-4.259358-16.66161s6.138488-10.648397 12.1517-12.276976c0.125275 0 2.881331-0.876927 7.767066-2.129679 27.184732-7.14069 97.965256-23.677025 165.488623-23.677025 43.219966 0 64.642036 6.764864 85.437729 13.404453 19.04184 6.013213 37.081478 11.650599 74.789332 11.6506s55.747492-5.637387 74.914608-11.6506c20.795694-6.514314 42.468314-13.404453 85.563004-13.404453 75.290433 0 148.075361 20.545143 162.983117 25.055053h3.883534c7.015415 0 13.404453 4.134084 16.160508 10.648397 2.756056 6.514314 1.378028 13.905554-3.507707 19.04184-80.92782 84.435527-201.943724 130.91265-340.62344 130.91265zM260.979466 811.658429c73.536579 63.890384 176.262295 98.716907 292.76829 98.716907 116.130169 0 218.354783-34.575973 291.891363-97.83998-28.938586-7.14069-79.925618-17.663812-130.6621-17.663812-37.833129 0-55.872767 5.637387-75.039882 11.775875-20.795694 6.514314-42.343039 13.279178-85.43773 13.279178-43.09469 0-64.51676-6.764864-85.312454-13.279178-19.167115-6.013213-37.206753-11.775875-74.914607-11.775875-49.233178 0-101.723514 9.771471-133.29288 16.786885zM875.830457 621.74113c-41.967213 0-64.015659-6.764864-85.187179-13.279177-19.918767-6.138488-38.710056-11.775875-76.292635-11.775875-37.457304 0-55.622217 5.762662-74.914607 11.775875-20.920969 6.514314-42.593589 13.279178-85.187179 13.279177s-64.391485-6.764864-85.437729-13.279177c-19.417666-6.013213-37.707854-11.775875-75.165158-11.775875-37.332028 0-55.622217 5.637387-74.914608 11.775875-21.046244 6.514314-42.718865 13.279178-85.437729 13.279177-84.184977 0-117.633472-26.18253-121.141179-29.189136-3.632983-3.131882-5.887937-7.516516-6.138488-12.276976-0.626376-10.898948-1.002202-21.797896-1.002202-32.321018 0-27.184732 2.004404-54.620015 6.013212-98.716907 0.751652-9.019819 8.393443-16.035234 17.413262-16.035233h852.122339c9.019819 0 16.66161 6.890139 17.413262 16.035233 4.008808 44.096893 6.013213 71.532175 6.013212 98.716907 0 7.516516-0.626376 14.531931-1.378028 21.42207-0.375826 3.758258-0.751652 7.391241-0.876926 10.898948-0.250551 4.76046-2.505505 9.145094-6.138488 12.276976-3.632983 2.881331-36.705652 29.189136-119.763152 29.189136z m-161.605089-60.132126c42.84414 0 65.143137 6.764864 86.565207 13.404453 19.668216 6.013213 38.208955 11.650599 75.039882 11.6506 52.114509 0 80.301444-11.650599 91.325667-17.538537 0.125275-1.002202 0.250551-2.129679 0.25055-3.131882 0.626376-6.263763 1.127477-12.276976 1.127478-18.039638 0-22.549547-1.503303-45.600196-4.384634-79.675067H144.348196c-2.881331 34.074872-4.384634 57.12552-4.384634 79.675067 0 6.890139 0.125275 14.030829 0.501101 21.296795 11.400049 6.013213 40.088084 17.538537 92.703695 17.538537 37.457304 0 55.747492-5.637387 75.039882-11.775875 20.920969-6.514314 42.718865-13.279178 85.43773-13.279178s64.51676 6.764864 85.563004 13.279178c19.417666 6.013213 37.707854 11.775875 74.914608 11.775875 37.332028 0 55.496942-5.637387 74.664056-11.775875 21.046244-6.639589 42.718865-13.404453 85.43773-13.404453z m269.717641 17.538537z" fill="" p-id="4617"></path><path d="M268.120156 925.533643c81.428921 58.127722 179.770002 80.92782 285.6276 80.92782s204.198679-22.800098 285.6276-80.92782H268.120156z" fill="#FFFFFF" p-id="4618"></path><path d="M553.747756 1024c-104.103744 0-200.941522-6.389038-287.757279-18.791289C171.658204 991.553707 85.969924 970.256912 11.305867 941.944703c-7.892342-3.006606-12.527526-11.274774-11.024223-19.542941 1.503303-8.268167 8.769268-14.406655 17.287986-14.406656h1072.356252c8.518718 0 15.659408 6.013213 17.287986 14.406656 1.503303 8.268167-3.131882 16.536335-11.024223 19.542941-74.664057 28.312209-160.352337 49.609004-254.559335 63.138732-86.941033 12.527526-183.778811 18.916565-287.882554 18.916565z m-421.676535-80.92782c119.637876 30.441889 260.823098 45.850746 421.676535 45.850746 160.853438 0 302.038659-15.408857 421.676535-45.850746H132.071221zM324.118199 355.781747c-2.254955 0-43.470516-0.375826-71.782726-28.688035-17.162711-17.162711-25.931979-40.213359-25.931979-68.77612 0-47.6046 24.178126-70.279423 45.600195-90.323464 19.292391-18.164913 34.575973-32.446293 34.575973-65.017862 0-26.558356-9.896746-45.22437-30.191338-57.000244-16.285784-9.52092-33.448495-10.898948-33.573771-10.898948-9.646195-0.626376-16.912161-8.894544-16.411059-18.540739 0.626376-9.646195 9.019819-17.037436 18.666014-16.41106 2.505505 0.125275 24.679227 1.879129 47.6046 14.782481 22.424272 12.652802 48.982628 38.08368 48.982628 88.06851 0 47.85515-24.303401 70.529973-45.725471 90.699291-19.292391 18.039638-34.450697 32.321018-34.450698 64.767311 0 25.931979 9.646195 43.595792 29.439687 53.868363 16.160509 8.268167 33.072669 8.518718 33.197945 8.518718 9.646195 0 17.413262 7.767066 17.538537 17.538536 0 9.52092-7.892342 17.413262-17.538537 17.413262zM863.678757 355.781747c-2.254955 0-43.470516-0.375826-71.782726-28.688035-17.162711-17.162711-25.931979-40.213359-25.93198-68.77612 0-47.6046 24.178126-70.279423 45.600196-90.323464 19.292391-18.164913 34.575973-32.446293 34.575973-65.017862 0-26.558356-9.896746-45.22437-30.191339-57.000244-16.285784-9.52092-33.448495-10.898948-33.57377-10.898948-9.646195-0.626376-16.912161-8.894544-16.41106-18.540739 0.626376-9.646195 8.894544-17.037436 18.666015-16.41106 2.505505 0.125275 24.679227 1.879129 47.6046 14.782481 22.424272 12.652802 48.982628 38.08368 48.982627 88.06851 0 47.85515-24.303401 70.529973-45.725471 90.699291-19.292391 18.039638-34.450697 32.321018-34.450697 64.767311 0 25.931979 9.646195 43.595792 29.439687 53.868363 16.160509 8.268167 33.072669 8.518718 33.197945 8.518718 9.646195 0 17.413262 7.767066 17.538536 17.538536 0 9.52092-7.892342 17.413262-17.538536 17.413262zM593.83584 355.781747c-2.254955 0-43.470516-0.375826-71.782726-28.688035-17.162711-17.162711-25.931979-40.338635-25.931979-68.77612 0-47.6046 24.178126-70.279423 45.600196-90.323464 19.292391-18.164913 34.575973-32.446293 34.575972-65.017862 0-26.934182-10.147296-45.725471-31.19354-57.626621-16.035234-9.019819-32.446293-10.272572-32.571569-10.272571-9.646195-0.626376-17.037436-8.894544-16.411059-18.540739 0.626376-9.646195 8.894544-17.037436 18.540739-16.41106 2.505505 0.125275 24.679227 1.879129 47.6046 14.782481 22.424272 12.527526 49.107903 38.08368 49.107903 88.06851 0 47.85515-24.303401 70.529973-45.725471 90.699291-19.292391 18.039638-34.450697 32.321018-34.450697 64.767311 0 18.791289 5.261561 33.57377 15.659407 43.846342C565.02253 320.328848 593.710565 320.704673 593.83584 320.704673c9.646195 0 17.538537 7.767066 17.538537 17.538537 0 9.646195-7.767066 17.538537-17.538537 17.538537z" fill="" p-id="4619"></path></svg>