<?xml version="1.0" standalone="no"?><!DOCTYPE svg PUBLIC "-//W3C//DTD SVG 1.1//EN" "http://www.w3.org/Graphics/SVG/1.1/DTD/svg11.dtd"><svg t="1626742673034" class="icon" viewBox="0 0 1024 1024" version="1.1" xmlns="http://www.w3.org/2000/svg" p-id="3843" width="64" height="64" xmlns:xlink="http://www.w3.org/1999/xlink"><defs><style type="text/css"></style></defs><path d="M877.8 222.2v37.3c0 4.7-3.3 8.5-7.2 8.5h-708c-4 0-7.2-3.8-7.2-8.5v-37.9" fill="#B6F5FF" p-id="3844"></path><path d="M870.6 275h-708c-7.8 0-14.2-7-14.2-15.5v-37.9h14v37.9c0 0.8 0.3 1.3 0.5 1.5h707.5c0.2-0.2 0.5-0.7 0.5-1.5v-37.3h14v37.3c-0.1 8.5-6.5 15.5-14.3 15.5z" fill="#0F13AE" p-id="3845"></path><path d="M936.9 561.8H96.2c-7.9 0-14.3-6.4-14.3-14.3V221.3c0-5.5 4.5-10 10-10h849.4c5.5 0 10 4.5 10 10v326.2c-0.1 7.9-6.5 14.3-14.4 14.3z m-841-336.5v322.1c0 0.2 0.2 0.3 0.3 0.3h840.7c0.2 0 0.3-0.2 0.3-0.3V225.3H95.9z" fill="#0F13AE" p-id="3846"></path><path d="M697.7 399.7H335.3c-1.3 0-2.4-1.1-2.4-2.4v-62.5c0-1.3 1.1-2.4 2.4-2.4h362.4c1.3 0 2.4 1.1 2.4 2.4v62.5c0 1.3-1.1 2.4-2.4 2.4z" fill="#B6F5FF" p-id="3847"></path><path d="M697.7 406.7H335.3c-5.2 0-9.4-4.2-9.4-9.4v-62.5c0-5.2 4.2-9.4 9.4-9.4h362.4c5.2 0 9.4 4.2 9.4 9.4v62.5c0 5.2-4.2 9.4-9.4 9.4z m-357.7-14h353.1v-53.2H340v53.2zM92.9 483.1h847.3v14H92.9z" fill="#0F13AE" p-id="3848"></path><path d="M761.6 842c-8.6 0-17.4-1.6-25.9-5.1-17.1-6.9-30.5-20.1-37.7-37.1-7.2-17-7.4-35.8-0.4-52.9 14.3-35.4 54.7-52.5 90.1-38.2 35.4 14.3 52.5 54.7 38.2 90.1-11 26.9-36.9 43.2-64.3 43.2z m0.2-124.4c-21.8 0-42.5 13-51.2 34.5-5.5 13.7-5.4 28.7 0.3 42.2s16.4 24.1 30.1 29.6c28.2 11.4 60.4-2.3 71.8-30.5 11.4-28.2-2.3-60.4-30.5-71.8-6.7-2.7-13.7-4-20.5-4zM754.7 638.3h14v37.2h-14zM661.622 682.716l9.9-9.9 26.304 26.304-9.9 9.9zM627.2 765.8h37.2v14h-37.2zM661.637 862.97l26.304-26.303 9.9 9.899-26.305 26.304zM754.7 870.1h14v37.2h-14zM825.525 846.627l9.9-9.9 26.304 26.305-9.9 9.9zM859 765.8h37.2v14H859zM825.517 699.12l26.304-26.304 9.9 9.9-26.305 26.304z" fill="#49A3FE" p-id="3849"></path><path d="M242.9 643h14v258.3h-14z" fill="#49A3FE" p-id="3850"></path><path d="M250.3 710.8l-39.4-43.7 10.4-9.3 28.8 31.9 28.3-32.5 10.5 9.2zM278.4 889.2l-28.3-32.5-28.8 31.9-10.4-9.4 39.4-43.6 38.6 44.4zM134.509 713.637l7-12.124 223.687 129.15-7 12.124z" fill="#49A3FE" p-id="3851"></path><path d="M139.4 753.4l-2.9-13.7 42.1-9-14-40.7 13.2-4.5 19.2 55.6zM323.1 859.4L305 803.5l57.8-11.2 2.6 13.7-42.2 8.2 13.2 40.9z" fill="#49A3FE" p-id="3852"></path><path d="M134.522 830.701l223.687-129.15 7 12.124-223.687 129.15z" fill="#49A3FE" p-id="3853"></path><path d="M178.4 858.4l-13.3-4.3 13.2-40.9-42.2-8.2 2.7-13.8 57.7 11.2zM362.1 752.4l-57.6-12.3 19.2-55.6L337 689l-14.1 40.7 42.1 9z" fill="#49A3FE" p-id="3854"></path><path d="M242.9 643h14v258.3h-14z" fill="#49A3FE" p-id="3855"></path><path d="M250.3 710.8l-39.4-43.7 10.4-9.3 28.8 31.9 28.3-32.5 10.5 9.2zM278.4 889.2l-28.3-32.5-28.8 31.9-10.4-9.4 39.4-43.6 38.6 44.4z" fill="#49A3FE" p-id="3856"></path><path d="M807.4 436.7h46.2v14h-46.2z" fill="#49A3FE" p-id="3857"></path><path d="M807.4 409.8h46.2v14h-46.2z" fill="#49A3FE" p-id="3858"></path></svg>