<?xml version="1.0" standalone="no"?><!DOCTYPE svg PUBLIC "-//W3C//DTD SVG 1.1//EN" "http://www.w3.org/Graphics/SVG/1.1/DTD/svg11.dtd"><svg t="1627784001779" class="icon" viewBox="0 0 1024 1024" version="1.1" xmlns="http://www.w3.org/2000/svg" p-id="19890" width="128" height="128" xmlns:xlink="http://www.w3.org/1999/xlink"><defs><style type="text/css"></style></defs><path d="M768 341.333333h85.333333a42.666667 42.666667 0 0 1 42.666667 42.666667v512a42.666667 42.666667 0 0 1-42.666667 42.666667H170.666667a42.666667 42.666667 0 0 1-42.666667-42.666667V384a42.666667 42.666667 0 0 1 42.666667-42.666667h85.333333V298.666667a256 256 0 1 1 512 0v42.666666z m-85.333333 0V298.666667a170.666667 170.666667 0 1 0-341.333334 0v42.666666h341.333334z m-213.333334 256v85.333334h85.333334v-85.333334h-85.333334z m-170.666666 0v85.333334h85.333333v-85.333334H298.666667z m341.333333 0v85.333334h85.333333v-85.333334h-85.333333z" p-id="19891" fill="#ade9f8"></path></svg>